<?xml version="1.0" encoding="UTF-8"?>
<svg id="Layer_2" data-name="Layer 2" xmlns="http://www.w3.org/2000/svg" viewBox="0 0 681.74 704.52">
  <defs>
    <style>
      .cls-1, .cls-2, .cls-3 {
        fill: #cd0e2d;
      }

      .cls-4 {
        fill: #fff;
      }

      .cls-2 {
        font-family: TraderJoesRegular, 'Trader Joes';
        font-size: 108.5px;
      }

      .cls-3 {
        stroke: #cd0e2d;
        stroke-miterlimit: 10;
      }
    </style>
  </defs>
  <g id="Layer_1-2" data-name="Layer 1">
    <path class="cls-1" d="M390.38,35.09l2.72-7.93c90.04,13.69,171.02,63.75,224.29,137.51,40.32,55.83,62.56,122.13,64.27,191.15,2.26,103.85-42.16,201.99-121.56,268.77-85,71.48-198.82,96.83-306.21,68.69-73.09-19.15-137.7-62.48-183.59-122.23C26.19,513.63,1.7,444.15,0,371.83v-16.07c2-85.37,35.91-166.68,95.22-228.12l9.36-9.38C168.13,57.09,253.39,22.6,341.76,23.23c.13,4.08,1.15,6.95,2.55,10.61l-.32,7.55C161.63,39.35,13.81,189.28,18.15,371.52c4.22,177.58,151.73,318.69,329.82,314.79,173.73-3.81,313.62-144.88,315.59-318.83,1.81-160.14-114.25-297.19-272.32-322.28-.57-3.09-1.23-6.4-.86-10.11Z"/>
    <path class="cls-1" d="M205.83,337.5l-53.59-.54-55.76-.21c-10.76-.04-27.55,1.06-31.79-5.5-3.18-4.92-1.5-12.96,3.94-15.71,2.7-1.36,6.64-1.41,9.63-1.41h19.67c-17.71-5.37-27.47-11.45-30.63-29.86-.85-4.94.29-9.28,3.98-12.68,7.05-1.54,14.71-3.37,21.66-.75l10.82,4.07-5.35-13.64c-1.29-3.29-.03-6.8,2.47-8.9l11.48-9.64c1.84-1.55,6.48-1.47,8.84-1.02l12.12,2.29c1.44-4.5,1.06-10.13,4.37-13.4,5.22-5.17,20.46-15.24,26.41-14.07,10.6,2.1,22.36,7.13,29.86,14.39l8.61,8.33c.32-6.4-1.1-11.45-1.78-17.86-.52-4.87,2.07-12.34,6.26-15.31,6.55-4.64,12.85-8.87,19.87-12.48,24.07-12.38,41.61-16.66,68.59-18.79l22.65-.91c1.68-8.23,3.61-15.98,6.5-23.76l9.1-24.46c3.39-9.1,7.96-17.45,10.62-26.84,3.5-12.33,4.96-24.9,5.52-37.72l1.31-30.16c-1.68-2.16-2.8-4.82-2.76-7.43l.14-10.07,2.55-3.68c.26-1.33.74-4.52,1.89-5.29,8-5.34,17.95-5.73,26.57-2.19,3.16,1.3,3.84,4.1,4.85,6.87s2.03,5.23,1.97,8.13l-.17,8.93c-.04,1.87-1.13,3.44-3.09,4.56l1.74,19.52c2.5,19.2,5.76,37.81,11.56,56.26l9.66,25.85,4.92,14.02,5.67,17.93c3.36,10.62,5.51,21.11,5.65,32.31,16.81,10.37,34.3,24.77,39.36,44.41,7.81-.51,15.02-.49,22.78,1.17l95.11,20.36,25.87,5.34-.24,12.71-6.91,3.38c-1.92.94-3.75,3.69-4.11,5.46-1.26,6.22,3.33,8.65,10.18,10.97l.3,22.62c.08,6.34.69,12.12-.4,18.69l-27.88.91-45.09.49-79.91.37-41.77-.67c-2.64-.04-4.73-1.96-6.34-4.39l-37.84-.12c-11.14-.04-21.89-.83-32.81-2.58-4.06-.65-7.56-2.5-10.63-5.15-3.35,4.95-8.88,8.2-15.18,7.31-3.14-.44-5.62-2.42-7.73-4.91-5.75,6.84-15.14,7.79-20.96,1.48-6.89,3.67-15.02,4.29-19.97-.99l-7.76-.61c-7.12,7.77-17.01,11.74-25.7,4.94-6.11,3.14-12.68,3.71-18.91-.36ZM367.56,6.96l-1.33-1.53-8.35,2.07,9.68-.54ZM366.37,18.46l-10.28.13c8.3-5.61,16.91-3.97,25.94-3.06-8.23-3.91-21.09-4.99-28.54-.57l-.07,8.68,13.06-2.49-.11-2.69ZM364.47,31.23c-.1-.46-.45-1.74-.65-1.73l-6.87.29-.76,4.19,8.28-2.75ZM364.81,38.47c-2.33-2.65-5.9-1.91-8.65-.99l-.08,4.15,8.73-3.15ZM364.95,45.41c-2.98-2.77-5.94-2.38-8.69-1.35l-.69,4.54,9.38-3.19ZM365.02,52.05c-3.57-2.86-5.9-1.58-9.23-1.12l-.15,4.98,9.37-3.85ZM364.82,59.21c-3.73-3.3-5.91-1.48-9.3-1.17l-.43,5.3,9.73-4.13ZM364.88,66.11c-3.86-.96-6.3-.99-9.92-.87l-.15,4.98,10.07-4.12ZM362.83,74.37c.53-.17,1.49-1.2,1.33-1.57-.7-1.65-6.47-1.87-9.58-.21-1.12.6-1.33,3.39-.91,4.81l9.16-3.03ZM352.58,84.28l9.86-3.26c.55-.18,1.35-.99,1.59-1.41.18-.32-.79-1.61-1.18-1.55l-9.85,1.72-.42,4.49ZM363.66,87.55c-1.62-2.32-3.07-2.26-5.01-2.26-3.48,0-7.01,1.76-7.42,5.64l12.44-3.38ZM372.63,101.57l-.15-2.97-12.66-.07c4.38-2.26,8.31-2.3,13.03-2.47l-.54-2.48c-6.58-.06-12.84.4-19.35,2.22-1.43.4-3.16,2.86-3.64,4.18l-3.36,9.3,18.09-2.23c-.02-1.52-.19-3.01-.94-3.1l-3.46-.42c4.2-3.17,13.04-.95,12.98-1.96ZM408.73,195.61l6.11,5.99-6.84-.36c-.31.05-.15,2.91.73,3.35,1.61.79,4.43,2.56,5.91,4.19l-6.55-.53.1,4.85,4.94,2.34c.48.23.57,2.32.24,2.25l-5.48-.94.27,3.6c2.78,1.18,4.59,2.18,6.4,4.86l-6.84-.45.43,3.37c.11.88,5.66.95,7.3,5.18l-7.6-.77.08,4.36c3.22,1.17,5.3,1.63,7.93,4.54l-8.02.05.09,4.58c2.99.84,4.68,1.33,7.28,2.97l-7.19,1.59.05,3.17,6.68,1.96-6.53,2.52-.15,5.18,8.08-5.47.65-57.74c.05-4.77.56-8.93-.39-13.49l-4.37-21.12-5.97-18.94-10.61-28.37-6.67-18.99c-.63-1.8-3.16-3.34-5.19-3.86l.79,5.35c2.12,1.08,3.05,1.63,4.72,3.16l-4.16.43c.9,2.55,2.89,4.43,5.44,6.28l-3.24.4c-.71,3.2,1.92,4.71,3.67,4.81.49.03,2.1.94,1.8,1.19l-1.82,1.54,3.49,4-1.86,4.23,6.82,4.5-5.1.66,1.58,4.03c2.43.84,4.14,1.52,5.84,3.52l-5.35-.03c.58,1.02,1.98,2.85,3.04,3.69l4.9,3.87-5.38-.19,1.77,5.08c2.47,1.07,4.37,1.5,5.87,4.03l-5.2-.61,1.26,5.45c2.89,1.35,4.83,2.21,6.46,5.24l-5.47-1.23.98,4.73c2.85,1.3,4.66,2.09,7.04,4.46l-6.25-.45c-.07.8.68,3.63,1.65,4.53l6.12,5.67-5.25-.74c.21,1.5.5,3.81,1.24,4.57l5.03,5.21-5.67-1.2.37,3.99ZM371.98,104.28l-3.25-.19c-.19.51-.32,2.69.29,2.7l2.71.03c.46,0,.36-1.38.25-2.54ZM375.73,122.05c-.08,1.44-.87,2.35-1.56,2.3-12.36-.99-23.79.11-35.67,3.29l-1.46,5.05c10.24-2.18,19.9-3.77,30.36-3.17l11.08.64,9.98-7.47-10.79-10.32c-11.67-1.06-22.93-.55-34.42,2.69l-1.96,5.18c10.27-2.59,20.12-3.87,30.83-3.03,1.12.09,2.44.85,2.89,2.07-11.65-.45-22.25.45-33.48,2.7l-1.69,1.33c-.3.24.28,1.55.48,1.56,4.54-.76,9.22-2.54,13.53-2.58l21.86-.22ZM362.39,177.59l-15.4-.55c5.37-2.12,10.19-2.28,15.35-2.67l-.2-4.87-14.38-.55,14.53-2.09.07-5.79-13.38.04c4.49-2.14,8.26-2.19,13.55-2.37l-.03-5.58c-4.46.34-6.9.9-11.07-.25l10.33-2.05c1.1-.22,1.33-3.45.44-3.87l-9.73-.94,10.39-1.56.14-4.17-10.22-.62c3.3-1.36,6.08-1.5,9.6-1.81l.62-3.24c-9.51-.46-20.15,1.31-28.74,4.75l-5.77,15.88c-4.79,13.19-7.05,26.77-7.46,40.82l-.46,15.43,5.96-1.76,4.95-39.14c.25-1.99,2.75-3.77,4.53-2.83l-1.09,16.25c-.53,7.87-.45,15.62.15,23.76l27.38-1.51-.21-3.6c-6.43-.02-11.64.28-18.3-.56,6.22-2.01,12.13-1.76,18.56-2.42l-.29-4.96-18.58-.2c5.89-2.95,12.03-2.12,18.7-2.15l.29-5.86-19.05-.89,19.14-3.09-.33-4.94ZM376.96,134.63l-4.95.28c-.2,2.82,5.25,2.12,5.2,1.74l-.25-2.02ZM378.02,144.34l-.33-4.46-5.43-.07-.04,4.28,5.8.25ZM379.3,150.75l-.88-4.17-6.11.18.02,3.75,6.98.23ZM380.39,158.27l-1.32-3.95-7.31-.33.11,4.33,8.52-.05ZM380.75,166.58l-.16-4.81-8.88-.26.06,5.06h8.98ZM381.45,174.87l-.17-3.03-9.18-1.73.11,4.45,9.24.32ZM268.48,200.99l1.49.14,14.83,15.71,10.9,13.97c4.42,5.67,4.9,13.1,8.47,19.3-.46-5.73-1.61-11.3-3.08-16.39-1.37-.17-3.19-.49-3.41-1.24s.24-2.34.75-3.64c-2.83-7.01-6.79-13.21-10.68-20.27,7.34,5.95,12.73,13.32,15.78,21.94l5.11,14.48c.18.5,1.84,1.38,1.89.97l.24-2.04c-1.91-8.46-4.51-16.42-7.55-24.57l-12.62-17.54c6.15,4.88,11.34,10.84,15.29,17.37s5.29,14.22,8.71,21.29c.18-2.66.55-6.3-.26-8.87l-2.61-8.24-4.81-11.27c-1.49-3.49-5.19-5.62-6.22-9.64,6.62,5.25,9.86,12.55,14.05,19.24.93-5.81-.37-10.08-2.97-15.71l3.21,1.32-.07-7.49-5.72-7.82c2.78,1.58,3.76,3.16,6.22,5.76l2.02-20.2c-29.72.15-54.07,2.82-80.98,15.33-6.04,2.8-11.54,5.38-17.15,9.61,9.19,1.4,16.92,5.65,24.36,11.08,12.13,8.86,21.85,22.74,27.04,36.86l1.82-.79c-2.82-7.78-5.82-15.42-9.92-22.73-2.02-3.6-5.58-6-6.88-10.2,8.38,7.15,15.19,15.53,20.16,25.15l4.19,10.57c.88-3.15-.07-5.67-.81-8.53-1.19-4.64-3.15-8.51-5.46-12.69-3.46-6.26-6.89-12.39-12.24-17.34-3.01-2.79-6.61-4.8-8.21-8.59l10.73,8.72c8.01,6.51,12.98,14.93,18.08,23.67,3.09,5.28,2.29,6.28,3.23,7.92.12.2.73.08.69-.16l-.25-1.59-1.15-7.55c-1.08-4.1-4.53-7.79-3.87-13.14,5.37,5.93,9.03,12.71,12.01,19.98.57,1.39,1.22,2.38,3.08,2.98-.75-5.24-2.66-9.49-4.51-14.31s-3.87-9.02-7.28-12.94l-15.6-17.89ZM381.52,183.35l-.26-3.78-8.85-1.07.35,4.51,8.76.34ZM381.88,191.35l-.48-3.22-8.93-.56.02,3.26,9.39.52ZM382.13,199.9l-.36-3.25-9.29-.23-.03,3.37,9.68.11ZM441.14,230.91c-1.4-4.86-2.92-9.69-6.19-13.64-2.85-3.43-5.35-6.8-7.39-10.79-1.01-1.97-2.13-3.65-4.54-4.3,2.25,6.13,5.48,11.35,8.86,16.59,3.67-.08,2.79,2.78,3.41,4.82l2.85,9.41,3-2.1ZM382.99,207.98l-.6-3.46-9.99-.6.07,3.08,10.52.99ZM252.07,279.67c.8-4.35,4.34-5.66,7.66-6.85-1.18-6.81,1.87-12.88,8.32-15.39l-5.86-14.11c-2.39-5.75-6.43-10.81-10.38-15.73-8.48-10.56-30.13-25.55-41.24-17.51-4.29,3.1-5.02,9.42-4.51,14.25l2.18,20.63c6.64,5.49,13.25,10.92,18.53,17.79,4.71,6.13,7.01,20.85,8.53,19.23l1.39-1.49c3.99-4.27,9.98-4.21,15.38-.82ZM437.36,249.96l-3.31-17.77c-1.71-5.04-4.21-9.84-6.88-14.51l-4.7-8.21-.15,7.51c5.62,7.81,8.86,16.38,10.73,25.61,1.3.99,2.59,2.47,2.96,3.83.26.98-.5,2.5-1.28,4.56l2.63-1.04ZM365,302.59c7.72.02,14.51.15,22.06-1.15l-.42-87.65c-16.38-2.86-33.02-2.78-49.54-.95-5.63.62-10.57,1.88-16,3.8l-.2,33.94-.05,51.47c14.8.86,28.99.49,44.14.54ZM451.95,244.28c-1.71-5.96-2.38-12.43-5.4-17.85l-5.54-9.93c-.96-1.72-3.47-3.52-4.94-4.67,2.84,5.19,5.95,9.63,7.64,14.86l5.41,16.72.66,1.72c.13.34,1.26-.33,2.17-.87ZM202.98,260.65c-3.25-3.06-5.77-6.23-8.11-9.7l-8.47-12.55c4.22,3.3,6.98,7.43,10.12,11.6,3.95,5.24,8.5,9.3,14,12.89,4.56,2.97,7.83,6.94,10.81,11.05-2.36-7.01-8.6-10.2-12.44-16.28,4.88,1.4,7.97,5.08,11.29,8.36,3.58,3.54,5.83,7.7,8.04,12.08-1.34-4.49-2.8-9.44-5.55-13.3-5.17-7.28-18.62-16.59-28.21-27.48-6.42-7.3-14.48-11.59-23.34-15.05-4.66-1.82-7.67-2.65-12.58-.15-2.23,1.13-5.45,1.91-7.2,4.08,17.68,6.58,32.4,19.12,41,35.35,2.96,5.58,6.76,10.11,12.1,13.48l1.36-3.44c-3.32-3.23-7.43-5.67-10.17-9.21-3.05-3.96-4.92-8.62-7.34-13.26,5.89,2.85,5.22,10.81,12.26,15.65,2.27,1.55,5.49,2.83,7.44,4.55l8.76,7.75c-.45-2.38-1.31-4.63-2.87-6.1l-10.92-10.29ZM427.21,236.28l-4.44-11.99c-1.3,5.27-.21,10.63,2.1,15.45.81-.51,2.66-2.58,2.34-3.46ZM203.6,312.43c4.64.34,7.14-2.21,7.72-6.21,1.83-12.61.36-20.78-10.13-28.6-6.29-4.69-10.96-10.29-14.3-17.41-1.42-3.04-3.68-5.67-5.77-8.25-6.24-7.71-13.26-13.57-21.91-18.49-3.94-2.24-8.8-4.65-13.38-2.52-1.98.93-5.42,3.96-6.24,5.92-1.16,2.79-1.44,5.79-1.87,8.44,7.26,2.34,13.99,5.26,19.35,10.49,5.65,5.51,11.46,10,18.38,13.9s12.49,8.79,16.02,15.54c3.09,5.91,3.76,12.45,4.72,19.06.37,2.55-.59,3.86-3.09,5.32,3.05,1.94,6.61,2.52,10.5,2.81ZM457.19,240.68l-4.29-9.15,3.14,11.65c.69-.51,1.39-1.98,1.15-2.5ZM444.34,245.5l-2.23-9.34-3.35-.2,1.94,5.19,2.59,5.98c.13.31,1.18.65,1.16.31l-.12-1.94ZM428.73,242.44l-2.69.14c.64,3.05.81,5.3,3.59,7.74l-.9-7.89ZM423.82,248.16c.18-1.05-.82-3.65-1.21-4.38l.11,10.87,1.1-6.49ZM179.06,311.1l11.39-5.2c.64-7.38-.22-14.98-4.45-21.34-2.2-3.3-5.58-6.08-8.41-8.93-9.76-4.22-17.61-10.51-24.83-18.23-11.5-7.39-24.41-11.26-38.14-12.4l-9.41,8.66c8.21-.4,16.5.66,23.76,4.69,9.59,5.33,17.94,11.83,27.03,17.97l11.28,5.59c5.86,2.9,14.86,19.76,11.78,29.19ZM602.01,337.29l.46-35.2c-4.85-1.25-8.39-3.72-10.87-7.54-2.1-4.35-1.99-8.75.97-12.59,2.32-3.01,5.92-5.02,10.88-4.84l-.24-5.51-35.07-6.66-62.41-13.53c-12.41-2.69-24.18-5.08-36.89-5.23-3.44-.04-5.84.93-8.03,3.82-6.33,8.39-11.36,17.88-13.64,28.41-3.51,16.21.4,37.79,5.86,53.84.85,2.49,3.03,5.67,4.95,6.99l11.57-.45,96.73-.25,35.73-1.26ZM310.63,247.82c-1.91,4.51,1.43,8.09,2.71,12.11-.39-3.82-.94-7.89-2.71-12.11ZM291.14,254.66c2.49-.64,4.51,2.34,6.01,3.78.94.57,2.48-1.65,2.08-2.94-1.4-4.58-6.28-7.28-10.96-5.22-1.46.64-3.57,3.55-3.88,5.14-1.19,6.15,1.4,11.74,6.32,15.25l-2.61-6.22c-1.24-2.96-1-8.76,3.04-9.8ZM402.84,329.95c1.85-7.95,3.61-14.21,6.99-20.81,4.57-9.98,9.29-19.63,15.73-28.63,7.13-9.96,15.82-18.1,24.99-26.08l4.16-4.34c-1.17.05-3.33.42-4.07,1.05l-12.01,10.19c-6.67,5.66-12.04,12.67-16.93,19.97-5.49,8.19-9.69,16.91-13.72,25.84l-7.57,16.8,2.44,6.02ZM273.8,256.66l-.71-3.43c-.94,1.09-.89,3.36.71,3.43ZM412.44,269.37c-4.95,2.19-6.83,7-8.74,11.41-5.67,13.09-7.65,27.49-3.63,41.4,2.73-11.56,6.17-21.32,11.97-30.93,4.2-6.95,7.64-14,12.65-20.37,4.31-5.47,9.24-9.8,14.1-14.96-2.9.37-5.16,1.82-7.22,3.74-8.08,7.53-14.27,16.32-19.65,25.99l-12.46,22.39c4.38-17.38,13.39-32.06,24.68-45.14-3.67.25-5.52,2.82-7.63,5.23-5.62,6.45-9.23,13.8-13.9,21.73.38-7.86,6.49-13.37,9.83-20.5ZM162.65,310.72c3.78,1.28,7.92,1.74,11.41,1.32,2.15-7.01.41-12.5-2.53-18.25-5.96-11.62-11.13-9.86-17.8-14.44l-17.56-12.05c-10.1-6.93-21.07-11.42-33.78-9.11,2.03,7.04,4.82,13.43,7.98,20.36,6.22,2.57,12.31,4.53,18.99,6.31,10.35,2.77,19.96,7.89,27.56,15.44,2.22,2.2,1.06,6.1-.02,8.47l5.76,1.95ZM272.04,265.95l5.45,1.6,4.25-.45c-1.63-3.5-4.33-5.6-7.58-5.74s-6.83.6-8.62,3.66c-1.46,2.5-1.3,6.31-.4,8.87l5.11,2.59c1.16-3.74,1.46-5.58,1.79-10.52ZM312.74,271.93c.2.38.95,1.19,1.17,1.02l1.34-1.07c-1.56-4.08-4.34-8.11-8.6-9.47-3.99-1.28-8.01.63-9.68,4.03-2.72,5.53,3.66,11.76,4.92,10.52,1.88-1.85-2.36-6.37-.07-8.32,4.01-3.41,8.66-.94,10.92,3.28ZM410.41,324.85l6.89-16.34c7.71-15.31,17.29-28.98,27.96-42.53-8.21,5.85-13.88,13.84-19.28,22.37-8.72,13.78-16.4,27.62-22.31,42.86.86,1.61,2.25,3.23,3.3,4.08l3.44-10.44ZM281.32,276.79c1.31-1.08,4.74.43,5.99,1.2.51.31,3.06-.45,2.72-.93l-1.49-2.13c-2.74-3.91-8.76-4.94-12.06-.94-1.91,2.32-1.04,6.11.17,8.55l5.44.72c-1.55-2.08-2.92-4.72-.77-6.47ZM138.7,308.67c5.48-1.29,10.43-1.7,14.99-4.97-5.38-8.3-20.03-13.01-30.1-15.73-14.3-3.85-22.68-11.21-32.31-13.32-5.6-1.22-12.06-.68-17.39,1.05-2.55,1.2-2.06,5.36-1.99,7.52.29,8.41,3.66,15.51,11.13,19.82,6.28,3.63,13.57,6.51,20.96,7.59,4.78.7,9.81-.12,14.59.31,6.97.63,13.15-.64,20.11-2.28ZM216.38,296.85c1.2-5.44-.38-10.37-2-15.66l-4.95-6-2.83,2.06c7.23,4.7,9.59,11.44,9.79,19.61ZM308.49,290.84c-1.07-.15-2.36-3.25-1.78-3.85,6.57-.55,7.75-4,9.26-9.99-6.63-1.22-13.27,2.65-13.43,9.11-.14,5.38,5.86,8.05,10.5,6.87.8-.2,2.8-.15,2.85-.84l.24-3.03c-2.3,1.28-4.37,2.17-7.63,1.73ZM260.88,283.43c2.28.49,4.33,1.39,5.29,1.02l4.61-1.79c-3.95-5.51-11.72-7.08-14.23-3.32-2.27,3.38.08,7.85,4.49,10.74.41.27,1.88-1.23,1.52-1.57l-1.37-1.28c-.95-.89-1.45-3.91-.32-3.8ZM412.45,337.69l5.89-14.59c3.19-7.9,6.53-15.37,10.86-22.73,3.19-5.41,6.13-10.7,10.08-15.53,1.49-1.83,2.59-3.61,1.9-6.15l-12.85,17.99c-7.02,9.82-11.4,20.97-16.43,31.9l-4.12,8.95,4.69.16ZM245.78,288.61l7.27-1.78c-1.75-2.41-4.38-4.55-7.49-5.13-2.36-.44-4.51.73-5.15,2.89l5.36,4.01ZM290.63,291.53c-.93-.38-1.73-3.19-1.85-4.03l7.26-.3c1.76-.07,3.13-1.15,3.12-2.67-.01-2.02-1.03-2.71-3.07-3.02-4-.6-8.02.19-10.02,4.15-1.07,2.12-.41,6.51,1.9,7.88,4.37,2.58,12.94,2.37,12.5-1.79-2.9.38-6.98.94-9.86-.23ZM224.57,290.62c6.5,3.59,14.17,5.38,17.52.9-6.52-6.29-17.58-9.29-20.54-3.54-.97,1.89-.84,5.17.56,7.02,3.27,4.3,9.14,6.3,14.36,4.88-6.91-1.73-14.03-4.61-11.9-9.26ZM268.71,292.32l7.04.78c2.55.28,5.8-2.24,5.52-4.92-3-2.13-7.87-2.23-11.01-.39-2.75,1.61-4.25,4.28-3.51,7.25.54,2.17,2.82,4.32,5.37,4.93s5,.19,6.59-1.37l-7.83-1.3c-1.79-.3-2.89-3.54-2.16-4.99ZM249.44,297.44c5.75.29,8.78.54,12.79-1.68-3.22-3.56-7.23-4.98-11.61-3.78-2.03.55-3.93,2.96-4.08,4.73-.41,4.66,3.78,7.78,4.7,6.86l.93-.94c-1.45-1.58-2.5-3.26-2.72-5.2ZM420.27,337.67c3.37-10.29,7.49-18.88,12.33-27.89l8.05-14.99c-10.49,13.17-18.08,27.7-24.73,42.93l4.36-.05ZM309.35,312.45c-1.74,2.66-5.51,3.17-7.77,1.34,2.24-2.63,4.14-4.74,5.01-7.73.59-2.05,2.23-3.08,4.33-4.08.38-1.04-.84-2.98-2.15-3.28-1.04-.24-2.92-.02-4.22.72-5.28,3.03-7.78,10.55-4.75,16.01,1.94,3.5,7.03,2.29,9.47.11,3.23-2.89,6.1-6.22,5.02-10.64l-4.95,7.54ZM278.83,311.82l-.87-3.47c6.24.12,8.32-1.84,12.21-6.88-6.09-2.48-13.05.78-14.7,6.88-.95,3.53.59,6.98,4.16,7.7,6.7,1.35,14.43-1.89,14.73-8.72-4.81,6.59-15.1,6.21-15.53,4.49ZM259.35,311.6c-1.3-.17-2.62-3.31-1.85-3.8,3.6-.5,6.64-1.44,9.23-3.04l-3.75-3.87c-2.76.9-5.52,2.11-7.76,4.32-1.16,1.15-1.09,4.64-.18,6.07,2.49,3.92,13.45,3.78,15.97-3.09-3.93,2.39-6.82,4.05-11.66,3.4ZM222.4,314.52c-2.43.24-4.17-2.97-3.11-4.03l7.99-1.58,2.45-5.51c-5.53-2.31-13.41.86-14.58,6.93-.9,4.67,4.33,7.73,8.27,7.35.93-.09,3.18.33,3.24-.41l.28-3.2-4.54.46ZM250.04,310.04c-5.92,4.07-13.77,7.55-16.36,3.88-2.3-3.28,7.73-1.54,11.89-7.71.12-2.4-3.82-3.71-6.02-2.64-2.55,1.24-4.79,2.66-6.86,4.61-1.93,1.82-2.96,6.09-.94,7.98,3.34,3.14,8.38,2.37,12.09.46,2.82-1.45,6.02-2.94,6.2-6.58ZM333.19,317.34c15.86,1.67,31.85,2.62,46.42-1.38l-35.82-2.52-8.16-.7c2.4-.77,4.82-1.16,7.55-1.24l32.34-.92c2.2-.06,4.26-1.02,5.21-2.77l-59.76-1.71.72,14.33c.23,4.61,4.54,6.89,8.74,7.4,17.99,2.18,35.61,3.14,53.71,2.56l12.61-.41-1.96-5.73-17.36.54c-14.31.45-28.25-.19-42.31-2.11-4.83-.66-7.95-4.03-6.75-9.35,1.14,2.05,2.35,3.75,4.82,4.01ZM427.25,338.44l7.41-17.19,6.66-13.74c-7.77,9.09-13,19.09-17.07,30.46l3.01.48ZM135.5,327.68c-8.84-.09-16.77-.22-25.74-1.07-.58-.86-.43-1.46.4-1.98l42.77-.68c17.05-.27,33.37-.34,50.37-1.49,1.31-.09,2.85-1.6,3.3-3.04l-106.7-1.01c-9.57-.09-18.36-.93-27.5.77-3,.56-4.5,3.15-4.19,5.93.41,3.65,2.94,6.16,6.68,6.22l10.19.16c23.03.35,45.41.32,68.49.4l48.83.17-.04-2.84c0-.54-1.76-.86-2.37-.87l-64.49-.68ZM431.63,338.1c.12.75,2.49,1.44,3.16,1.04.55-.33.87-1.39,1.25-2.36,2.5-6.53,5.48-12.2,7.45-19.28l-6,9.91-5.85,10.69ZM213.37,333.96c-2.02-.1-3.92-2.16-4.11-3.73l5.87-2.14c2.85-1.04,4.29-3.87,4.91-6.93l-3.7-1.86c-4.71,1.81-8.47,5.36-9.92,10.15-.87,2.85.82,5.57,3.74,6.46,5.64,1.72,13.1-1.4,13.13-2.67l.05-2.53c-2.94,2.21-5.97,3.44-9.96,3.25ZM253.45,323.79c-.7-.41-.6-3.19-.57-4.16-1.23.32-2.97,1.32-3.51,2.25-.48.82-.35,3.3.27,4.1,1.95,2.52,6.47,3.2,8.74.72l-4.93-2.92ZM277.09,323.89c-3.01,3.23-5.01,4.68-8.62,5.48-6.2-2.29-.02-2.85,2.44-9.15-3.77-.38-7.04,2.2-8.44,5.45-1.13,2.62.4,5.22,2.86,5.97,3.95,1.2,7.45.04,10.43-2.75,1.43-1.34,2.1-3.74,1.33-5.01ZM244.36,328.85c-3.09,4.83-8.26,6.62-13.36,5.12l-1.46-1.74c-.55-.66,8.42-2.02,9.09-9.32l-6.2-.93-4.17,4.65c-2.33,2.6-1.82,8.65,1.72,9.91,5.83,2.08,11.62-1.45,15.09-5.88l1.11-1.42c.19-.24-1.55-.43-1.83-.4ZM289.51,330.94c-2.7,1.27-5.51-.7-5.54-2.93,3.52-1.13,6.81-2.36,7.59-6.4-6.35,1.33-11.47,5.13-9.61,9.33.62,1.41,2.95,2.98,4.69,3.03,4.84.14,9.17-2.5,11.07-6.9l-8.19,3.87ZM317.21,326.42c-5.2,2.87-10.82,4.88-11.78,2.44-.24-.62-.49-2.09-.42-2.46l3.3-1.54c.57-.27.48-1.97.2-2.92l-6.24,2.12c-.29,2.64-.02,5.89,1.97,7.76,2.23,2.09,5.72,1.86,8.78.73,2.14-.79,4.3-3.3,4.19-6.12ZM443.31,338.92c1.27-3.43,2.3-6.02,2.41-9.32l-5.71,9.56,3.29-.24ZM447.6,339.25c1.3-.03,2.47-.33,2.24-.74l-.79-1.47-1.45,2.21Z"/>
    <path class="cls-1" d="M564.46,154.62c-45.47-48.5-105.5-81.1-170.54-92.32-.68-.7-.97-3.03-.61-3.75,117.05,19.95,212.96,106.04,245.52,220.1,16.19,56.71,15.9,117.42-1.09,174.12-28.56,95.29-101.7,171.45-195.74,203.88-67.3,23.2-141.01,22.55-207.87-1.97-90.24-33.08-160.42-106.58-189.12-198.34-18.85-60.27-18.78-125.32.22-185.67,24.5-77.81,79.14-142.88,151.23-180.91,45.23-23.86,95.39-36,146.77-35.61.37.95.3,2.22-.1,3.62-85.77-.96-167.7,34.64-226.17,97.1-109.42,116.9-110.04,298.75-1.38,416.5,60.97,66.08,147.66,102.05,237.74,98.42,81.44-3.28,158.31-39.03,213.33-99.05,108.02-117.82,107.4-299.23-2.19-416.12Z"/>
    <path class="cls-4" d="M447.6,339.25l1.45-2.21"/>
    <g>
      <path class="cls-1" d="M562.68,445.74c4.48-14.16.85-29.91-9.52-39.32-1.51-2.01-3.7-2.92-5.99-2.25-6.66,1.97-4.43,15.74-2.31,24.45,1.51,6.22,3.95,11.82,7.61,17.16h-38.81c2.65-3.47,4.75-7.19,6.14-11.45,8.1-24.83,13.46-55.11-3.82-76.33-1.02-1.26-1.78-2.93-2.33-4.59l61.7-.03c7.59,0,15.11,15.16,9.7,27.25-2.87,6.41-7.37,11.19-13,15.87,2.12,8.86,5.07,17.52,9.55,25.59l10.52,15.24c1.82,2.64,3.39,4.73,4.62,8.42h-34.08ZM561.36,384.99c3.91-5.42.8-13.28-4.87-15.69-3.56-1.51-7.11-1.97-10.6-1.86,1.79,9.44,2.04,17.76.13,26.93,5.5-1.89,11.55-4.12,15.34-9.37Z"/>
      <g>
        <path class="cls-1" d="M427.18,390.15c4.47,24.64-10.6,55.85-36.79,55.58l-38.61-.41c5.8-14.36,9.15-28.74,10.3-44.07.93-12.48-2.21-24.22-7.61-35.36-1.99-4.12-3.59-7.85-4.37-12.95l45.92.29c4.81.03,9.59,4.16,13.12,7.14,9.11,7.68,15.88,17.87,18.04,29.78ZM397.61,412.49c7.26-7.35,9.13-18.97,3.29-27.5-4.81-7.04-12.03-11.02-20.35-14.11-2.42,17.42-1.85,31.21,3.91,48.15,5.06-1.54,8.94-3.36,13.15-6.53Z"/>
        <path class="cls-1" d="M206.5,406.55c-1.66-2.16-3.9-3.06-6.16-2.36-6.37,1.97-4.43,14.87-2.51,23.32,1.51,6.64,4.12,12.47,7.79,18.24l-38.76.03c2.86-3.69,5.02-7.7,6.48-12.29,3.17-9.92,5.66-19.83,6.84-30.25,1.54-13.62-.31-30.57-8.28-41.66-1.87-2.61-3.52-4.45-5.07-8.14l61.06-.07c9.11-.01,15.56,15.75,10.4,27.33-2.85,6.39-7.47,11.19-12.97,15.77,3.24,14.51,9.42,27.89,18.94,39.32,2.55,3.06,4.37,6.09,5.75,9.94l-33.99.08c4.04-13.76,1.34-29.28-9.53-39.25ZM214.99,384.77c3.29-6.46.06-13.93-6.73-16.09-2.75-.88-5.63-1.18-9.07-1.41,1.56,9.07,2.17,17.93.04,27.03,6.42-1.82,11.57-4.58,15.76-9.52Z"/>
        <path class="cls-1" d="M293.03,414.27c-6.16.49-9.54,4.47-10.41,10.35-.71,6.86.32,13.46,1.6,21.15l-32.32-.05,10.97-31.57c4.41-12.69,8.86-24.91,12.52-37.8,1.73-7.56,2.91-14.53,1.3-22.92l38.79.04c-1.25,13.44.52,24.98,5.44,36.64,6.93,18.94,14.96,36.61,23.81,55.61l-31.99.04c-1.88-9.4-4.32-17.82-8.48-25.78-2.27-4.37-6.13-6.11-11.23-5.71ZM306.56,402.43c-5.89-6.86-8.54-14.72-11.47-23.52-1.35,8.65-4.52,15.9-8.99,23.56l20.46-.05Z"/>
        <path class="cls-1" d="M465.72,403.38c-2.24-.04-4.59.05-6.43.71-2.16,5.98-2.56,12.37-.87,18.37,2.76,9.84,17.57.98,27.11-3.47,5.74-2.82,11.07-5.6,17.83-6.89l-6.67,33.69-64.78-.04,5.38-15.77c5.15-15.51,5.78-31.35,2.44-47.37l-7.82-29.19,64.76-.07,6.71,30.61c-5.47-1.34-9.68-3.18-14.36-5.27l-18.32-6.88c-1.7-.64-5.36-1.07-6.83-.33-3.85,1.95-6.15,5.77-7.42,9.55-1.25,3.7.97,7.03,4.72,7.88,5.76,1.3,11.3.24,17.66-1.21l-.04,19.09-13.06-3.4Z"/>
        <path class="cls-1" d="M151.64,445.72l-48.48.09c6.8-15.05,23.09-60.35,10.52-68.29-1.96-1.24-6.04-.36-7.78,1.19l-9.62,8.58c-2.9,2.83-5.17,5.59-9.4,7.73l16.52-41.63h49.69s14.91,41.82,14.91,41.82c-7.16-4.24-11.23-10.33-16.5-15.8-2.39-2.76-6.78-3.81-9.65-1.25-2.89,2.58-3.57,6.62-3.98,10.46.05,7.13,1.11,13.77,2.6,20.75,3.12,12.07,6.66,23.1,11.15,36.36Z"/>
      </g>
    </g>
    <path class="cls-1" d="M490,267.97c-3.19-2.03-8.07-.39-10.76,1.52-3.75,2.66-4.16,6.21-3.66,10.87-5.62-4.77-6.49-10.26-2.73-15.87,1.8-2.69,4.92-4.66,8.74-4.85,4.36-.21,7.98,1.7,9.45,6.37,1.53-2.1,3.43-3.28,5.66-2.68,2.11.57,3.88,3.68,3.7,5.27l-4.75-.33c-1.05-.07-1.7,1.87-2.79,3.62l-2.86-3.93Z"/>
    <path class="cls-1" d="M543.72,278.34c-4.18,1.77-8.27,4.28-9.81,9.07-.65,2.02.35,5.12.83,7.74-4.93-3.27-6.22-9.57-4.37-14.97,1.69-4.95,6.61-8.92,12.45-8.95,5.41-.03,10.37,3.46,11.05,9.15-3.42-2.73-6.52-3.58-10.15-2.04Z"/>
    <path class="cls-1" d="M512.55,332.1c-3.82-2.95-4.27-9.16-1.79-13.5,1.84-3.21,5.96-4.99,9.45-4.52s7.29,2.45,8.66,6.44c-4.06-2.13-7.69-1.6-11.21.57-3.32,2.05-4.43,5.52-5.13,11Z"/>
    <path class="cls-1" d="M483.59,303.8c-2.11-1.46-5.99-.47-7.8,1.04-2.31,1.92-2.76,4.83-2.95,8.8-2.95-2.2-4.42-6.94-2.66-10.76,1.36-2.93,4.86-4.59,8.06-4.98,5.06-.62,9.11,3.35,8.52,8.08l-3.17-2.19Z"/>
    <path class="cls-1" d="M552.61,332.69c-2.42-1.67-5.18-3.3-8.32-2.4-2.66.76-4.47,3.7-5.72,7.36-2.21-2.31-2-5.97.14-9.3,1.28-1.99,4.29-3.73,7.91-2.83,2.5.62,5.83,3.01,5.99,7.17Z"/>
    <path class="cls-1" d="M593.6,320.01c-4.39-1.17-7.61-.79-10.04,1.93s-2.26,6.4-.26,10.28c-5.64-1.92-6.31-8.85-2.96-12.84,3.4-4.04,9.74-4.39,13.26.63Z"/>
    <path class="cls-1" d="M464.71,291.66c-2.49-1-5.33-1.58-7.25-.47-2.71,1.57-3.05,3.93-2.54,7.69-2.63-.8-3.58-4.2-3.17-6.99s3.1-4.78,6.06-5.06c2.79-.26,6.22.89,6.89,4.84Z"/>
    <path class="cls-1" d="M519.29,294.74c-2.63.36-5.05.53-6.26,1.47-1.05.81-1.71,3.09-2.47,5.32-2.05-.75-2.8-3.82-2.03-6.17.65-1.98,2.77-3.81,5.06-4.06s4.74,1.56,5.7,3.44Z"/>
    <path class="cls-1" d="M579.28,306.79l-2.49,3.05c-1.46-1.4-2.4-3.62-1.57-5.59s3.29-3.21,5.51-2.87c1.81.28,4.07,2.86,3.7,4.76-1.72-.4-4.24-.46-5.15.65Z"/>
    <path class="cls-1" d="M541,313.07c-4.22.71-5.95,2.58-6.24,6.98-2.16-1.88-3.02-4.78-1.57-7.34.52-.91,2.4-2.1,3.39-2.2,1.31-.14,3.14.76,4.42,2.55Z"/>
    <path class="cls-1" d="M491.85,318.4l-6.38,4.87c-1.29-1.16-1.8-4.49-.26-5.88,2.05-1.84,5.64-.92,6.64,1.01Z"/>
    <path class="cls-1" d="M332.44,282.53c-3.65-2.14-4.72-6.07-5.67-9.62-2.23-8.29-1.61-17.07,2.98-24.18,4.05-6.28,11.13-8.29,17.61-5.17,6.26,3.02,9.87,8.62,9.64,15.79-.19,5.7-.43,11.55-3.02,16.82-3.78,7.69-13.93,10.82-21.53,6.36ZM352.67,272.5c2.88-7,2.3-14.04.33-21.01-1.95-2.2-4.12-4.74-6.69-6.01-5.81-2.87-12.51,0-15.5,5.44-5.59,10.15-2.99,27.65,4.84,30.5,7.03,2.56,14.18-2.02,17.02-8.93Z"/>
    <path class="cls-1" d="M375.64,230.44l-26.41-.49-23.63,1.61,1.4-1.92,20.87-2.05,21.53.69c2.21,0,4.53.03,6.23,2.16Z"/>
    <path class="cls-1" d="M347.53,237.29l-15.14,1.34c-2.09.19-4.25-.09-6.29-.74l15.09-2.38,6.67.19,27.58.13v1.22s-27.92.23-27.92.23Z"/>
    <path class="cls-1" d="M365.45,291.21c3.64,1.7-28.39,2.42-38.33,1.43,3.51-2.17,7.13-.68,10.66-1.17l26.21-.94,1.46.68Z"/>
    <path class="cls-1" d="M363.95,287.36l-14.09.33-19.44.65c-.3.01-1.46-.25-1.45-.55l.06-1.24c.01-.3,1.06-.57,1.5-.58l13.96-.09,16.93.34c.9.02,1.76.31,2.53,1.13Z"/>
    <path class="cls-1" d="M277.32,218.33l1.05,1.73c1.53,2.52-7.19-2.05-10.51-10.66l9.46,8.93Z"/>
    <path d="M282.86,203.33c.36.32.63,2.33.32,2.18s-1.61-.68-1.87-.94l-7.9-8.09.25-1.25,9.2,8.1Z"/>
    <path d="M310.65,204.79c-3.69-2.63-6.58-6.94-9.29-11.39,3.57,3.15,7.12,6.19,9.29,11.39Z"/>
    <path class="cls-1" d="M251.76,212.23c-4.23-.82-7.55-3.38-10.3-6.88,4.01,1.55,7.11,3.73,10.3,6.88Z"/>
    <path class="cls-1" d="M246.85,246.12l1.22,2.87c.27.65-1.69,1.63-2.39,1.66s-1.42-1.46-1.8-2.32l-1.04-2.34c-.3-.66,1.18-2.13,1.89-1.98s1.85,1.43,2.14,2.11Z"/>
    <path class="cls-1" d="M256.11,247.03c-.06.48-1.51,1.38-1.96,1.22s-1.42-1.21-1.28-1.66c.23-.8.88-1.8,1.37-2.04.85-.41,2.07.87,1.88,2.49Z"/>
    <path class="cls-1" d="M233.44,257.41l-2.18-.07c-.24,0-.27-.59-.1-.75l1.26-1.17c.19-.17,1.24-.39,1.5-.37.39.02.91.53.84.91s-.92,1.46-1.32,1.45Z"/>
    <path class="cls-1" d="M228.98,242.58c-.23.93-3,.44-3.33-.33.18-2.04,3.76-1.75,3.33.33Z"/>
    <path class="cls-1" d="M237.77,275.32c-.2.16-1.74-.05-1.64-.27l.73-1.66,1.28-.64c.43-.21,1.76.83,1.39,1.13l-1.77,1.44Z"/>
    <path class="cls-1" d="M242.44,266.71c-.71.17-.77-1.51,0-1.39,1.34-.37,1.7-.57,1.83-.28l.64,1.41c.14.3-1.47.26-2.46.26Z"/>
    <path class="cls-3" d="M337.02,153.08c2.03,4.03.71,6.09-1.22,8.59-1.46-1.48-2.29-3.25-1.93-4.59.44-1.65,1.83-3.27,3.14-4Z"/>
    <path class="cls-1" d="M200.67,302.68c.26-.46,2.14-.42,2.44,0,.38.53,1.15,2.13.53,2.3l-2.36.64c-.64.17-1.12-2.03-.61-2.94Z"/>
    <path class="cls-1" d="M202.51,288.1c-.37.26-1.9.81-2.33.94-.58.17-1.37-1.55-1.1-2.2.78-1.9,4.03.23,3.43,1.26Z"/>
    <path class="cls-1" d="M196.59,290.24c.36-.4,2.1.15,2.47.54s.31,1.92-.23,1.92l-2.33.02c-.53,0-.49-1.84.09-2.48Z"/>
    <path class="cls-1" d="M193.94,276.4c-.37-.08-1.46-.79-1.23-1.05l1.22-1.41c.28-.33,2.11-.21,2.19.21l.28,1.4c.08.41-1.1.65-2.46.85Z"/>
    <path class="cls-1" d="M148.06,303.88l-18.23-8-16.88-6.59c-4.41-1.76-8.7-3.02-12.12-6.9l20.11,7.41c8.18,1.25,15.57,4.27,22.81,8.13,1.67,1.84,2.82,3.17,4.31,5.95Z"/>
    <path class="cls-1" d="M138.84,305.61c-2.99-.61-5.64-1.64-8.45-2.87l-2.05.36c-.58.1-1.28-1.79-1.86-1.98l-10.42-3.57c-6.47-3.06-12.12-6.46-17.98-10.6,4.22.62,7.27,2.59,10.77,4.3,10.37,4.74,21.87,3.19,29.99,14.37Z"/>
    <path class="cls-1" d="M130.19,308.36c-12.18-2.24-24.91-10.61-35.32-17.56,7.73,1.9,13.68,6.34,20.81,9.01,5.27,1.97,10.48,3.48,14.51,8.55Z"/>
    <path class="cls-1" d="M116.78,308.47c-2.75-.36-4.47-1.08-6.77-2.17-6.43-3.03-13.08-5.66-17.79-11.82l19.53,9.96c1.9.97,3.17,1.8,5.03,4.04Z"/>
    <path class="cls-1" d="M105.44,308.12c-6.83,1.3-18.01-6.28-22.49-12.13l11.29,7.14,11.19,4.98Z"/>
    <path class="cls-1" d="M164.32,302.91c-.33,1.49-2.19,2.5-3.49,2.56.09-1.69.25-2.87.6-3.61s3.08.13,2.88,1.05Z"/>
    <path class="cls-1" d="M146.6,282.97c.44.61-.78,1.97-1.43,1.98-.97.01-2.56-1.08-2.25-1.9.44-1.14,2.98-1.06,3.68-.08Z"/>
    <path class="cls-1" d="M164.62,297.48l-1.69-.15c-.4-.04-1.04-1.17-.69-1.37l1.67-.94c.33-.18,1.64-.18,1.82.17l.69,1.31c.18.35-1.39,1.01-1.79.98Z"/>
    <path class="cls-1" d="M158.17,292.02c-.61,1.27-3.67,1.29-4.2.22-.27-.53,1.32-1.86,1.92-1.84.76.02,2.08.93,2.28,1.62Z"/>
    <path class="cls-1" d="M132.78,278.97l2.46.07c.53.02.2,2.06-.32,2.1l-2.08.16c-.65.05-.72-2.35-.06-2.33Z"/>
    <path class="cls-1" d="M81.26,325.11c-2.89,2.36-9.47,1.56-11.25-.95,4.07-2.37,7.55-1.08,11.25.95Z"/>
    <path class="cls-1" d="M100.6,325.63c-.74.34-3.47.98-4.87.98-.78,0-1.51-2.6-.86-3.02,1.37-.91,4.65-1.64,5.73,2.04Z"/>
    <path class="cls-1" d="M207.9,254.75c-2.49,1.06-4.68-1.52-5.19-4.37l5.19,4.37Z"/>
    <path class="cls-1" d="M176.47,278.85c5.68.72,7.85,6.11,9.82,11.03s3.75,10.16,1.57,15.06l-2.06-2.2c-.31-.33-1.64-.03-1.75.21.16,1.49.35,3.96-.04,5.11-.81.38-2.33-1.31-2.43-2.32-.99-9.59-4.65-18.99-12.16-25.27-2.98-2.49-7.52-3.2-10.64-5.45-4.27-3.08-7.87-6.46-11.5-10.49,4.76,1.7,7.3,5.4,11.03,8.28,4.58,3.53,12.15,4.95,18.01,10.39.98-.28,3.18-.66,3.48.14s0,2.89-.26,3.89l4.71,11.31,1.8.33c.44.08.14-1.71-.02-2.13l-4.55-11.64c-.85-2.18-3.22-4.03-5-6.23Z"/>
    <path class="cls-1" d="M170.44,275.89c-2.28.16-4.04-.78-5.5-2.43,2.06.33,3.82,1.01,5.5,2.43Z"/>
    <path class="cls-1" d="M348.21,259.35l-14.98.95-1.73.04c-.42,0,.94-1.64,1.42-1.75,13.46-3.03,21.01.4,15.29.77Z"/>
    <path class="cls-1" d="M348.17,263.64c-4.14,3.41-8.79,1.41-13.05,2.6l-1.3-.69c-.37-.19.92-1.15,1.39-1.18l12.96-.74Z"/>
    <path class="cls-1" d="M346.02,253.83l-13.27.82c3.36-3.32,7.62-1.98,11.76-2.04l1.7-.02c.22,0,.03.27-.19,1.25Z"/>
    <path class="cls-1" d="M343.72,273.86l-6.66.18c1.89-1.37,4.2-2.5,6.66-.18Z"/>
    <g>
      <text class="cls-2" transform="translate(108.62 548.41) scale(.94 1)"><tspan x="0" y="0">parker’</tspan></text>
      <text class="cls-2" transform="translate(514.77 548.41) scale(.94 1)"><tspan x="0" y="0">s</tspan></text>
    </g>
  </g>
</svg>